# xmcd CD database file
#
# Track frame offsets:
#	150
#	13397
#	26365
#	40046
#	52615
#	67639
#	80580
#	94782
#	108666
#	120836
#	133345
#	147472
#	161202
#	174403
#	186558
#	199384
#	211864
#	225284
#
# Disc length: 3170 seconds
#
# Revision: 3
# Processed by: cddbd v1.5.1PL2 Copyright (c) Steve Scherf et al.
# Submitted via: CDex 1.51
#
DISCID=f20c6012
DTITLE=Various Artist - The Great Country Collection - 4 of 8
DYEAR=2002
DGENRE=Country
TTITLE0=Sons of the Pioneers - Cool Water (8-Aug-1945)
TTITLE1=Wilf Carter - My Queen Of The Prairies (3-Jul-1944)
TTITLE2=Tex Ritter - There's A New Moon Over My Shoulder (23-Nov-1943)
TTITLE3=Roy Acuff - The Prodigal Son (1-Jun-1942)
TTITLE4=Gene Autry - The Last Round Up (9-Oct-1933)
TTITLE5=Bill Monroe and His Bluegrass Boys - I Wonder If You Feel The Way I Do (7-Oct-1940)
TTITLE6=The Carter Family - Will The Circle Be Unbroken (6-May-1935)
TTITLE7=Jimmie Rodgers - Blue Yodel No.4 (20-Oct-1928)
TTITLE8=Bob Wills and His Texas Playboys - Time Changes Everything (15-Apr-1940)
TTITLE9=Hank Snow - I'll Tell The World That I Love You (16-Jan-1942)
TTITLE10=Patsy Montana and The Prairie Cowboys - I Wan To Be A Cowboy's Sweetheart (16-Aug-1935)
TTITLE11=Merle Travis - Divorce Me C.O.D. (1946)
TTITLE12=Wesley Tuttle - With Tears In My Eyes (1945)
TTITLE13=Wilf Carter - Farewell, Sweetheart, Farewell (30-Jun-1944)
TTITLE14=Roy Acuff and His Smoky Mountain Boys - Night Train To Memphis (28-May-1942)
TTITLE15=Elton Britt - There's A Star Spangled Banner Waving Somewhere (19-Mar-1942)
TTITLE16=Jimmie Rodgers - Daddy And Home (12-Jun-1928)
TTITLE17=Gene Autry - It Makes No Difference Now (18-Jun-1941)
EXTD=YEAR: 2002
EXTT0=
EXTT1=
EXTT2=
EXTT3=
EXTT4=
EXTT5=
EXTT6=
EXTT7=
EXTT8=
EXTT9=
EXTT10=
EXTT11=
EXTT12=
EXTT13=
EXTT14=
EXTT15=
EXTT16=
EXTT17=
PLAYORDER=
